<svg xmlns="http://www.w3.org/2000/svg" xmlns:xlink="http://www.w3.org/1999/xlink" width="42" height="42" viewBox="0 0 42 42">
  <defs>
    <linearGradient id="linear-gradient" x1="6.543" x2="0" y2="1.776" gradientUnits="objectBoundingBox">
      <stop offset="0" stop-color="#ff8013"/>
      <stop offset="1" stop-color="#a3238e"/>
    </linearGradient>
  </defs>
  <g id="Group_1648" data-name="Group 1648" transform="translate(-208.026 -1388.806)">
    <g id="Group_1584" data-name="Group 1584" transform="translate(16.026 157.652)">
      <g id="Path_832" data-name="Path 832" transform="translate(192 1231.154)" fill="none">
        <path d="M21,0A21,21,0,1,1,0,21,21,21,0,0,1,21,0Z" stroke="none"/>
        <path d="M 21 2 C 15.92491912841797 2 11.15360069274902 3.976341247558594 7.564968109130859 7.564968109130859 C 3.976341247558594 11.15360069274902 2 15.92491912841797 2 21 C 2 26.07508087158203 3.976341247558594 30.84640121459961 7.564968109130859 34.43502807617188 C 11.15360069274902 38.02365875244141 15.92491912841797 40 21 40 C 26.07508087158203 40 30.84640121459961 38.02365875244141 34.43502807617188 34.43502807617188 C 38.02365875244141 30.84640121459961 40 26.07508087158203 40 21 C 40 15.92491912841797 38.02365875244141 11.15360069274902 34.43502807617188 7.564968109130859 C 30.84640121459961 3.976341247558594 26.07508087158203 2 21 2 M 21 0 C 32.59798049926758 0 42 9.402019500732422 42 21 C 42 32.59798049926758 32.59798049926758 42 21 42 C 9.402019500732422 42 0 32.59798049926758 0 21 C 0 9.402019500732422 9.402019500732422 0 21 0 Z" stroke="none" fill="#a3238e"/>
      </g>
    </g>
    <g id="Group_1616" data-name="Group 1616" transform="translate(198.63 1379.873)">
      <g id="Group_1569" data-name="Group 1569" transform="translate(21.234 21.562)">
        <path id="Path_827" data-name="Path 827" d="M194.341,273.37a1.142,1.142,0,0,0,1.142-1.142v-2.284a1.142,1.142,0,0,0-2.284,0v2.284a1.142,1.142,0,0,0,1.142,1.142Z" transform="translate(-192.057 -260.808)" fill="url(#linear-gradient)"/>
        <path id="Path_828" data-name="Path 828" d="M283.944,124.565a1.142,1.142,0,0,0,1.142-1.142V113.145a1.142,1.142,0,1,0-2.284,0v10.278a1.142,1.142,0,0,0,1.142,1.142Z" transform="translate(-277.092 -112.003)" fill="url(#linear-gradient)"/>
        <path id="Path_829" data-name="Path 829" d="M373.541,209.6a1.142,1.142,0,0,0,1.142-1.142v-5.71a1.142,1.142,0,0,0-2.284,0v5.71a1.142,1.142,0,0,0,1.142,1.142Z" transform="translate(-362.121 -197.036)" fill="url(#linear-gradient)"/>
        <path id="Path_830" data-name="Path 830" d="M463.144,167.081a1.142,1.142,0,0,0,1.142-1.142v-7.994a1.142,1.142,0,0,0-2.284,0v7.994a1.142,1.142,0,0,0,1.142,1.142Z" transform="translate(-447.156 -154.519)" fill="url(#linear-gradient)"/>
        <path id="Path_831" data-name="Path 831" d="M171.944,405.484h15.988a1.142,1.142,0,0,0,0-2.284H171.944a1.142,1.142,0,0,0,0,2.284Z" transform="translate(-170.802 -388.355)" fill="url(#linear-gradient)"/>
      </g>
    </g>
  </g>
</svg>
