<svg xmlns="http://www.w3.org/2000/svg" xmlns:xlink="http://www.w3.org/1999/xlink" width="73.5" height="73.5" viewBox="0 0 73.5 73.5">
  <defs>
    <linearGradient id="linear-gradient" x1="0.758" y1="0.133" x2="0.273" y2="0.647" gradientUnits="objectBoundingBox">
      <stop offset="0" stop-color="#f5821f"/>
      <stop offset="1" stop-color="#a3238e"/>
    </linearGradient>
  </defs>
  <g id="Group_1591" data-name="Group 1591" transform="translate(4570 -11556.681)">
    <g id="Group_1595" data-name="Group 1595" transform="translate(-209.964 103.681)">
      <circle id="Ellipse_46" data-name="Ellipse 46" cx="36.75" cy="36.75" r="36.75" transform="translate(-4360.035 11453)" fill="url(#linear-gradient)"/>
      <path id="Path_821" data-name="Path 821" d="M98.1,56.539A1.576,1.576,0,1,1,99.348,54.7,1.608,1.608,0,0,1,98.1,56.539Zm20.786-2.285a1.585,1.585,0,1,0,1.585,1.585A1.6,1.6,0,0,0,118.881,54.254Zm-5.676-18.98V66.49a.567.567,0,0,1-.553.553h-8.513a.567.567,0,0,1-.553-.553v-1c-8.513,1.658-8,1.622-8.255,1.437-.295-.221.147,1.622-5.934-29.594a.574.574,0,0,1,.442-.663l8.366-1.622a.545.545,0,0,1,.626.442l4.754,24.434V35.274a.567.567,0,0,1,.553-.553h8.513a.542.542,0,0,1,.553.553ZM95.184,51.932c2.359-.442,3.833-.737,3.759-.737a.756.756,0,0,0,.59-.885L97.174,38.186a.756.756,0,0,0-.885-.59l-3.759.737a.756.756,0,0,0-.59.885L94.3,51.343a.756.756,0,0,0,.885.589ZM96.29,57.2a2.709,2.709,0,0,0,3.722-.737,2.545,2.545,0,0,0,.405-1.99A2.682,2.682,0,1,0,96.29,57.2Zm1.032,3.464c.074,0-.147.037,2.875-.553a.584.584,0,0,0,.442-.663.538.538,0,0,0-.663-.442l-2.8.553a.52.52,0,0,0-.442.626.655.655,0,0,0,.589.479Zm3.243,1.142-2.8.553a.584.584,0,0,0-.442.663.555.555,0,0,0,.553.442c.074,0-.147.037,2.875-.553a.549.549,0,0,0,.405-.663.53.53,0,0,0-.59-.442Zm9.25,1.253h-2.838a.553.553,0,0,0,0,1.105h2.838a.553.553,0,1,0,0-1.105Zm0-2.838h-2.838a.553.553,0,0,0,0,1.105h2.838a.553.553,0,1,0,0-1.105Zm1.253-4.385a2.69,2.69,0,1,0-2.69,2.69A2.705,2.705,0,0,0,111.068,55.839Zm0-18.243a.779.779,0,0,0-.774-.774h-3.8a.779.779,0,0,0-.774.774V51.38a.779.779,0,0,0,.774.774h3.833a.779.779,0,0,0,.774-.774Zm12.6-2.322V66.49a.567.567,0,0,1-.553.553h-8.513a.567.567,0,0,1-.553-.553V35.275a.567.567,0,0,1,.553-.553h8.513a.543.543,0,0,1,.553.553Zm-3.391,27.788h-2.838a.553.553,0,1,0,0,1.105h2.838a.572.572,0,0,0,.332-.737A1.042,1.042,0,0,0,120.282,63.063Zm0-2.838h-2.838a.553.553,0,1,0,0,1.105h2.838a.553.553,0,1,0,0-1.105Zm1.253-4.385a2.69,2.69,0,1,0-2.69,2.69A2.705,2.705,0,0,0,121.535,55.839Zm0-18.243a.779.779,0,0,0-.774-.774h-3.833a.779.779,0,0,0-.774.774V51.38a.779.779,0,0,0,.774.774h3.833a.779.779,0,0,0,.774-.774Zm-13.12,16.658A1.585,1.585,0,1,0,110,55.839,1.621,1.621,0,0,0,108.415,54.255Z" transform="translate(-4430.419 11439.278)" fill="#fff"/>
    </g>
  </g>
</svg>
