<svg xmlns="http://www.w3.org/2000/svg" xmlns:xlink="http://www.w3.org/1999/xlink" width="118.976" height="118.975" viewBox="0 0 118.976 118.975">
  <defs>
    <linearGradient id="linear-gradient" x1="0.758" y1="0.133" x2="0.273" y2="0.647" gradientUnits="objectBoundingBox">
      <stop offset="0" stop-color="#f5821f"/>
      <stop offset="1" stop-color="#a3238e"/>
    </linearGradient>
  </defs>
  <g id="Confidentiality" transform="translate(4360.5 -11453.172)">
    <circle id="Ellipse_46" data-name="Ellipse 46" cx="59.488" cy="59.488" r="59.488" transform="translate(-4360.5 11453.172)" fill="url(#linear-gradient)"/>
    <g id="Group_1548" data-name="Group 1548" transform="translate(-4323.9 11493.235)">
      <path id="Path_805" data-name="Path 805" d="M393.75,132.136v7.008l5.256-.11v-6.9a4.38,4.38,0,1,1,8.76,0v6.9l5.256.11v-7.008a9.636,9.636,0,1,0-19.273,0Z" transform="translate(-363.964 -112.863)" fill="#fff"/>
      <path id="Path_806" data-name="Path 806" d="M124.283,253.75H96.25v16.645a2.631,2.631,0,0,0,2.628,2.628h23.653V261.634a4.36,4.36,0,0,1,1.752-3.481Zm-21.9,16.645h0Zm7.008,0h0Zm7.008,0h0Z" transform="translate(-96.25 -230.972)" fill="#fff"/>
      <path id="Path_807" data-name="Path 807" d="M124.287,155.758a11.448,11.448,0,0,1,.149-1.752h-13.83l-1.9-3.8a2.616,2.616,0,0,0-2.35-1.453H98.882a2.631,2.631,0,0,0-2.628,2.628v6.132h28.033Z" transform="translate(-96.254 -136.485)" fill="#fff"/>
      <path id="Path_808" data-name="Path 808" d="M141.766,39.18l1.417,2.835H156.34a11.4,11.4,0,0,1,9.955-7.84V26.246H131.254V36.758h6.595a4.358,4.358,0,0,1,3.918,2.421Zm14.893,1.083v0Zm0-3.5v0ZM164.543,28v0Zm-31.537,0v0Zm31.537,3.5v0Z" transform="translate(-127.749 -26.246)" fill="#fff"/>
      <path id="Path_809" data-name="Path 809" d="M396.4,306.25H378.878a2.631,2.631,0,0,0-2.628,2.628V326.4a2.631,2.631,0,0,0,2.628,2.628H396.4a2.631,2.631,0,0,0,2.628-2.628V308.878A2.631,2.631,0,0,0,396.4,306.25ZM378.878,308a.876.876,0,1,1-.876.876A.877.877,0,0,1,378.878,308Zm0,19.273a.876.876,0,1,1,.876-.876A.877.877,0,0,1,378.878,327.275Zm8.76-.876a8.76,8.76,0,1,1,8.76-8.76A8.76,8.76,0,0,1,387.638,326.4Zm8.76.876a.876.876,0,1,1,.876-.876A.877.877,0,0,1,396.4,327.275Zm0-17.521a.876.876,0,1,1,.876-.876A.877.877,0,0,1,396.4,309.754Z" transform="translate(-348.217 -278.216)" fill="#fff"/>
      <path id="Path_810" data-name="Path 810" d="M458.5,367.5a3.494,3.494,0,0,0-1.752,6.522v3.99h3.5v-3.99A3.494,3.494,0,0,0,458.5,367.5Z" transform="translate(-419.082 -333.335)" fill="#fff"/>
    </g>
  </g>
</svg>
