<svg xmlns="http://www.w3.org/2000/svg" xmlns:xlink="http://www.w3.org/1999/xlink" width="62.478" height="62.478" viewBox="0 0 62.478 62.478">
  <defs>
    <linearGradient id="linear-gradient" x1="0.925" y1="0.5" x2="0.386" y2="1.753" gradientUnits="objectBoundingBox">
      <stop offset="0" stop-color="#ff8013"/>
      <stop offset="1" stop-color="#a3238e"/>
    </linearGradient>
  </defs>
  <g id="Group_1615" data-name="Group 1615" transform="translate(-192 -1231.154)">
    <g id="Path_832" data-name="Path 832" transform="translate(192 1231.154)" fill="#fff">
      <path d="M 31.23877143859863 61.47754287719727 C 27.1561222076416 61.47754287719727 23.19612121582031 60.67817306518555 19.46878051757812 59.10164260864258 C 15.86809158325195 57.57867050170898 12.63413143157959 55.39821243286133 9.856731414794922 52.62081146240234 C 7.079331398010254 49.84341049194336 4.898871421813965 46.60945129394531 3.375901460647583 43.00876235961914 C 1.799371480941772 39.28142166137695 1.000001430511475 35.3214225769043 1.000001430511475 31.23877143859863 C 1.000001430511475 27.1561222076416 1.799371480941772 23.19612121582031 3.375901460647583 19.46878051757812 C 4.898871421813965 15.86809158325195 7.079331398010254 12.63413143157959 9.856731414794922 9.856731414794922 C 12.63413143157959 7.079331398010254 15.86809158325195 4.898871421813965 19.46878051757812 3.375901460647583 C 23.19612121582031 1.799371480941772 27.1561222076416 1.000001430511475 31.23877143859863 1.000001430511475 C 35.3214225769043 1.000001430511475 39.28141021728516 1.799371480941772 43.00875091552734 3.375901460647583 C 46.60945129394531 4.898871421813965 49.84341049194336 7.079331398010254 52.62081146240234 9.856731414794922 C 55.39821243286133 12.63413143157959 57.57867050170898 15.86809158325195 59.10164260864258 19.46878051757812 C 60.67817306518555 23.19612121582031 61.47754287719727 27.1561222076416 61.47754287719727 31.23877143859863 C 61.47754287719727 35.3214225769043 60.67817306518555 39.28142166137695 59.10164260864258 43.00876235961914 C 57.57867050170898 46.60945129394531 55.39821243286133 49.84341049194336 52.62081146240234 52.62081146240234 C 49.84341049194336 55.39821243286133 46.60945129394531 57.57867050170898 43.00875091552734 59.10164260864258 C 39.28141021728516 60.67817306518555 35.3214225769043 61.47754287719727 31.23877143859863 61.47754287719727 Z" stroke="none"/>
      <path d="M 31.23877143859863 2 C 27.29067993164062 2 23.46175003051758 2.772792816162109 19.85832977294922 4.296913146972656 C 16.3768424987793 5.769451141357422 13.24972152709961 7.877952575683594 10.5638427734375 10.5638427734375 C 7.877952575683594 13.24972152709961 5.769451141357422 16.3768424987793 4.296913146972656 19.85832977294922 C 2.772792816162109 23.46175003051758 2 27.29067993164062 2 31.23877143859863 C 2 35.18685913085938 2.772792816162109 39.01579284667969 4.296913146972656 42.61920928955078 C 5.769451141357422 46.10070037841797 7.877952575683594 49.22782135009766 10.5638427734375 51.91370010375977 C 13.24972152709961 54.59959030151367 16.3768424987793 56.70809173583984 19.85832977294922 58.18063354492188 C 23.46175003051758 59.70475006103516 27.29067993164062 60.47754287719727 31.23877143859863 60.47754287719727 C 35.18685913085938 60.47754287719727 39.01579284667969 59.70475006103516 42.61920166015625 58.18063354492188 C 46.10070037841797 56.70809173583984 49.22782135009766 54.59959030151367 51.91370010375977 51.91370010375977 C 54.59958267211914 49.22782135009766 56.70808029174805 46.10070037841797 58.18063354492188 42.61920928955078 C 59.70475006103516 39.01579284667969 60.47754287719727 35.18685913085938 60.47754287719727 31.23877143859863 C 60.47754287719727 27.29067993164062 59.70475006103516 23.46175003051758 58.18063354492188 19.85832977294922 C 56.70808029174805 16.3768424987793 54.59958267211914 13.24972152709961 51.91370010375977 10.5638427734375 C 49.22782135009766 7.877952575683594 46.10070037841797 5.769451141357422 42.61920166015625 4.296913146972656 C 39.01579284667969 2.772792816162109 35.18685913085938 2 31.23877143859863 2 M 31.23877143859863 0 C 48.49146270751953 0 62.47754287719727 13.9860725402832 62.47754287719727 31.23877143859863 C 62.47754287719727 48.49147033691406 48.49146270751953 62.47754287719727 31.23877143859863 62.47754287719727 C 13.9860725402832 62.47754287719727 0 48.49147033691406 0 31.23877143859863 C 0 13.9860725402832 13.9860725402832 0 31.23877143859863 0 Z" stroke="none" fill="#a3238e"/>
    </g>
    <g id="Icon_Group" data-name="Icon Group" transform="translate(211.133 1248.621)">
      <path id="Path_832-2" data-name="Path 832" d="M96.042,19.551h3.981v.841a1.908,1.908,0,0,0,1.906,1.906h1.822a1.908,1.908,0,0,0,1.906-1.906v-.841h13.175a1.4,1.4,0,1,0,0-2.8H105.656v-.841A1.908,1.908,0,0,0,103.75,14h-1.822a1.908,1.908,0,0,0-1.906,1.906v.841H96.042a1.4,1.4,0,0,0,0,2.8Z" transform="translate(-94.612 -14.001)" fill="url(#linear-gradient)"/>
      <path id="Path_833" data-name="Path 833" d="M118.277,199.868H114.3v-.841a1.908,1.908,0,0,0-1.906-1.906h-1.822a1.908,1.908,0,0,0-1.906,1.906v.841H95.488a1.406,1.406,0,0,0-1.4,1.4,1.424,1.424,0,0,0,1.4,1.4h13.175v.841a1.926,1.926,0,0,0,1.906,1.906h1.822a1.908,1.908,0,0,0,1.906-1.906v-.841h3.981a1.406,1.406,0,0,0,1.4-1.4A1.424,1.424,0,0,0,118.277,199.868Z" transform="translate(-94.086 -187.954)" fill="url(#linear-gradient)"/>
      <path id="Path_834" data-name="Path 834" d="M118.8,382.988H105.629v-.841a1.908,1.908,0,0,0-1.906-1.906H101.9A1.908,1.908,0,0,0,100,382.147v.841H96.043a1.4,1.4,0,1,0,0,2.8h3.981v.841a1.908,1.908,0,0,0,1.906,1.906h1.822a1.908,1.908,0,0,0,1.906-1.906v-.841h13.175a1.406,1.406,0,0,0,1.4-1.4,1.448,1.448,0,0,0-1.429-1.4Z" transform="translate(-94.613 -361.908)" fill="url(#linear-gradient)"/>
    </g>
  </g>
</svg>
