<svg xmlns="http://www.w3.org/2000/svg" width="66.441" height="66.441" viewBox="0 0 66.441 66.441">
  <g id="Group_1333" data-name="Group 1333" transform="translate(-2.94 17.536) rotate(-28)" style="mix-blend-mode: multiply;isolation: isolate">
    <path id="Path_786" data-name="Path 786" d="M49.128,24.564A24.564,24.564,0,1,1,24.564,0,24.564,24.564,0,0,1,49.128,24.564" transform="translate(0 6.261)" fill="#e4f3ff"/>
    <rect id="Rectangle_649" data-name="Rectangle 649" width="8.255" height="11.188" transform="translate(20.436 1.6)" fill="#e4f3ff"/>
    <path id="Path_787" data-name="Path 787" d="M10.467,2.707H1.353A1.354,1.354,0,0,1,1.353,0h9.113a1.354,1.354,0,0,1,0,2.707" transform="translate(18.654 0)" fill="#e4f3ff"/>
    <path id="Path_788" data-name="Path 788" d="M45.548,3.017s-2.605-6.4-23.789-.564C4.394,7.234,0,4.939,0,4.939L16.916,14l21.362-.775Z" transform="translate(1.738 25.515)" fill="#ce3d80"/>
    <path id="Path_789" data-name="Path 789" d="M25.436,4.622C18.851,3.874,12.406,2,5.786,1.687A32.5,32.5,0,0,0,.01,1.922c0,.124-.01.247-.01.371a22.836,22.836,0,0,0,45.672,0c0-.774-.04-1.538-.115-2.293-.346.309-.7.6-1.078.882C39.158,4.832,32.02,5.37,25.436,4.622" transform="translate(1.727 28.532)" fill="#de5994"/>
  </g>
</svg>
