<svg xmlns="http://www.w3.org/2000/svg" xmlns:xlink="http://www.w3.org/1999/xlink" width="73.5" height="73.5" viewBox="0 0 73.5 73.5">
  <defs>
    <linearGradient id="linear-gradient" x1="0.758" y1="0.133" x2="0.273" y2="0.647" gradientUnits="objectBoundingBox">
      <stop offset="0" stop-color="#f5821f"/>
      <stop offset="1" stop-color="#a3238e"/>
    </linearGradient>
  </defs>
  <g id="Quality_Icon" data-name="Quality Icon" transform="translate(-42.423 -38.172)">
    <circle id="Ellipse_46" data-name="Ellipse 46" cx="36.75" cy="36.75" r="36.75" transform="translate(42.423 38.172)" fill="url(#linear-gradient)"/>
    <path id="Path_804" data-name="Path 804" d="M110.938,14.617,109.28,12.2a.833.833,0,0,0-1.382,0l-1.658,2.416a2.185,2.185,0,0,1-1.061.829,2.139,2.139,0,0,1-1.337.044l-2.826-.785a.882.882,0,0,0-.4-.018.845.845,0,0,0-.357.178.8.8,0,0,0-.241.321.849.849,0,0,0-.053.4l.285,2.915a2.187,2.187,0,0,1-.276,1.311,2.163,2.163,0,0,1-.954.874c-.018.009-.027.018-.044.018L96.29,21.936c-.1.027-.918.7-.241,1.364l2.1,2.051a2.213,2.213,0,0,1,.633,1.186,2.168,2.168,0,0,1-.187,1.328l-1.266,2.648a.831.831,0,0,0,.7,1.195l2.924.232a2.166,2.166,0,0,1,1.961,1.641l.731,2.835a.838.838,0,0,0,1.3.473l2.389-1.7a2.149,2.149,0,0,1,2.55,0l2.389,1.7a.833.833,0,0,0,1.3-.473l.731-2.835a2.166,2.166,0,0,1,1.961-1.641l2.924-.232a.834.834,0,0,0,.7-1.195l-1.266-2.648a2.168,2.168,0,0,1-.187-1.328,2.245,2.245,0,0,1,.633-1.186l2.1-2.051a.837.837,0,0,0-.241-1.364c-.936-.428-3.094-1.132-3.664-2.113a2.187,2.187,0,0,1-.276-1.311l.285-2.915a.836.836,0,0,0-1.061-.891l-2.826.785a2.205,2.205,0,0,1-1.337-.044,2.09,2.09,0,0,1-1.1-.829ZM105.357,38.2l-2.211,6.383L100.935,40.2a.688.688,0,0,0-.731-.374l-4.734.891,5.118-7.445.241.018a.832.832,0,0,1,.473.187.792.792,0,0,1,.267.437l.731,2.835a2.119,2.119,0,0,0,.5.936,2.152,2.152,0,0,0,.883.58,2.228,2.228,0,0,0,1.043.116,1.729,1.729,0,0,0,.633-.178Zm11.225-4.93,5.118,7.445-4.734-.891a.67.67,0,0,0-.731.374l-2.211,4.387L111.812,38.2a1.944,1.944,0,0,0,.624.187,2.26,2.26,0,0,0,1.926-.7,2.262,2.262,0,0,0,.5-.936l.731-2.835a.847.847,0,0,1,.267-.437.8.8,0,0,1,.473-.187Zm-12.624-8.273,1.863,1.863a.678.678,0,0,0,.963,0l6.437-6.437.874.874L106.3,29.087l-3.219-3.219Zm-2.318.4,1.836-1.836a.678.678,0,0,1,.963,0l1.863,1.863,6.437-6.437a.678.678,0,0,1,.963,0l1.836,1.836a.678.678,0,0,1,0,.963l-8.755,8.755a.678.678,0,0,1-.963,0l-4.172-4.172a.681.681,0,0,1-.009-.972Zm24.714-14.8L125.6,8.251l-.758,2.336a.679.679,0,0,1-.651.481l-2.47-.009,2,1.444a.686.686,0,0,1,.25.758l-.758,2.345,1.979-1.444a.682.682,0,0,1,.811-.009l1.988,1.453-.758-2.318a.68.68,0,0,1,.241-.785l2-1.444-2.434.009a.69.69,0,0,1-.678-.473Zm-34.022,0a.69.69,0,0,0,.678.473l2.434-.009-2,1.444a.689.689,0,0,0-.241.785l.758,2.318-1.988-1.453a.682.682,0,0,0-.811.009l-1.979,1.444.767-2.345a.686.686,0,0,0-.25-.758l-2-1.444,2.47.009a.671.671,0,0,0,.642-.473l.758-2.345Zm17.011-8.247L108.586,0l-.758,2.345a.672.672,0,0,1-.642.473l-2.47-.009,2,1.444a.686.686,0,0,1,.25.758L106.2,7.36l1.979-1.444a.682.682,0,0,1,.811-.009l1.988,1.453-.758-2.318a.68.68,0,0,1,.241-.785l2-1.444-2.434.009a.691.691,0,0,1-.678-.473Z" transform="translate(-29.412 52.629)" fill="#fff" fill-rule="evenodd"/>
  </g>
</svg>
