<svg xmlns="http://www.w3.org/2000/svg" xmlns:xlink="http://www.w3.org/1999/xlink" width="73.5" height="73.5" viewBox="0 0 73.5 73.5">
  <defs>
    <linearGradient id="linear-gradient" x1="0.758" y1="0.133" x2="0.273" y2="0.647" gradientUnits="objectBoundingBox">
      <stop offset="0" stop-color="#f5821f"/>
      <stop offset="1" stop-color="#a3238e"/>
    </linearGradient>
  </defs>
  <g id="Superior_service_icon" data-name="Superior service icon" transform="translate(4718.332 -11403.933)">
    <circle id="Background_ellipse" data-name="Background ellipse" cx="36.75" cy="36.75" r="36.75" transform="translate(-4718.332 11403.933)" fill="url(#linear-gradient)"/>
    <path id="Path_818" data-name="Path 818" d="M251.66,217.008a4.209,4.209,0,1,0,1.232-2.972,4.205,4.205,0,0,0-1.232,2.972Zm4.205-3.212a3.215,3.215,0,1,1-2.272.943,3.212,3.212,0,0,1,2.272-.943Z" transform="translate(-4937.841 11224.247)" fill="#f7f7f7"/>
    <path id="Path_819" data-name="Path 819" d="M303.475,263.546a1.129,1.129,0,1,1-1.129-1.129,1.129,1.129,0,0,1,1.129,1.129" transform="translate(-4984.326 11177.71)" fill="#f7f7f7"/>
    <path id="Path_820" data-name="Path 820" d="M106.415,33.823a14.494,14.494,0,0,0,2.743,7.487,8.42,8.42,0,0,1,1.719,4.118c0,.128.017.26.021.413V50.9h15.783V47.7l.726.139h0a4.712,4.712,0,0,0,5.657-4.271l.4-4.32,1.618-.67h0a2.338,2.338,0,0,0,1.348-1.424,2.453,2.453,0,0,0-.236-2.049L133.5,30.59a14.267,14.267,0,0,0-3.032-7.89v-.861l-.375-.312a12.92,12.92,0,0,0-4.931-2.362l-.118-.035h0a15.739,15.739,0,0,0-4.452-.66V28.541a6.282,6.282,0,0,1,2.483,11.39,5.47,5.47,0,0,0,3.865,2.379,1.91,1.91,0,1,1-.042,2.083,7.639,7.639,0,0,1-5.744-3.6A6.282,6.282,0,1,1,118.51,28.53v-10a13.349,13.349,0,0,0-2.813.58,12.56,12.56,0,0,0-7.518,6.032,13.545,13.545,0,0,0-1.84,6.837v.347c.01.507.035,1.011.076,1.493Z" transform="translate(-4801.531 11406.529)" fill="#f7f7f7"/>
  </g>
</svg>
