<svg xmlns="http://www.w3.org/2000/svg" xmlns:xlink="http://www.w3.org/1999/xlink" width="73.5" height="73.5" viewBox="0 0 73.5 73.5">
  <defs>
    <linearGradient id="linear-gradient" x1="0.758" y1="0.133" x2="0.273" y2="0.647" gradientUnits="objectBoundingBox">
      <stop offset="0" stop-color="#f5821f"/>
      <stop offset="1" stop-color="#a3238e"/>
    </linearGradient>
  </defs>
  <g id="Group_1591" data-name="Group 1591" transform="translate(4570 -11560.001)">
    <g id="Group_1592" data-name="Group 1592" transform="translate(-4570 11560)">
      <circle id="Ellipse_46" data-name="Ellipse 46" cx="36.75" cy="36.75" r="36.75" transform="translate(0 0.001)" fill="url(#linear-gradient)"/>
      <g id="Group_1554" data-name="Group 1554" transform="translate(21.056 19.317)">
        <path id="Path_811" data-name="Path 811" d="M93.113,203.088a15.773,15.773,0,0,1,1.231-1.686l-.52-.374a.683.683,0,0,0-.957.153l-.423.584a.684.684,0,0,0,.155.957Z" transform="translate(-92.044 -190.967)" fill="#fff"/>
        <path id="Path_812" data-name="Path 812" d="M276.7,336.682a.684.684,0,1,1-.684-.684.684.684,0,0,1,.684.684" transform="translate(-261.657 -316.172)" fill="#fff"/>
        <path id="Path_813" data-name="Path 813" d="M103,178.219a14.363,14.363,0,0,0,14.322-13.673h-4.751a.684.684,0,0,1,0-1.367H114.6a11.69,11.69,0,0,0-2.925-7.022l-1.421,1.421h0a.684.684,0,0,1-.967-.967l1.427-1.427h0a11.545,11.545,0,0,0-2.63-1.774,1.378,1.378,0,0,1-.684-1.747l.516-1.274h0A14.35,14.35,0,1,0,103,178.219Zm6.284-8.073h0a.684.684,0,0,1,.967,0l1.934,1.934h0a.684.684,0,1,1-.967.967l-1.934-1.934h0a.684.684,0,0,1,0-.967Zm-12.569.967-1.934,1.934h0a.684.684,0,1,1-.967-.967l1.934-1.934h0a.684.684,0,0,1,.967.967Zm6.968,5.055a.684.684,0,1,1-1.367,0v-2.735a.684.684,0,0,1,1.367,0Zm-1.367-24.612a.684.684,0,0,1,1.367,0v2.735a.684.684,0,0,1-1.367,0Zm.581,10.265,1.5-4.991a.684.684,0,0,1,1.31.394l-1.5,4.991h0a2.051,2.051,0,0,1,.718.963H107.1a.684.684,0,0,1,0,1.367h-2.177a2.046,2.046,0,1,1-2.028-2.725Zm-9.082-7.144a.683.683,0,0,1,.967,0l1.934,1.934h0a.684.684,0,1,1-.967.967l-1.934-1.934a.683.683,0,0,1,0-.967Zm-3.8,9.185a.684.684,0,0,1,.684-.684h2.735a.684.684,0,0,1,0,1.367H90.694A.684.684,0,0,1,90.01,163.862Z" transform="translate(-88.641 -143.353)" fill="#fff"/>
        <path id="Path_814" data-name="Path 814" d="M238.682,65.332h5.469a.734.734,0,0,1,.684.684V66.7a.684.684,0,0,1-.684.684h-5.469A.734.734,0,0,1,238,66.7v-.684A.684.684,0,0,1,238.682,65.332Z" transform="translate(-227.058 -65.332)" fill="#fff"/>
        <path id="Path_815" data-name="Path 815" d="M258.721,113.37a15.711,15.711,0,0,1,2.051.137V112h-4.1v1.5A15.7,15.7,0,0,1,258.721,113.37Z" transform="translate(-244.362 -108.584)" fill="#fff"/>
        <path id="Path_816" data-name="Path 816" d="M385.041,151.9h.638a.684.684,0,0,0,.684-.727,16.979,16.979,0,0,0-3.165-8.582c0-.007-.014-.012-.019-.02a.487.487,0,0,0-.028-.045h0a17.129,17.129,0,0,0-5.932-5.1.684.684,0,0,0-.935.342c-.133.3-.259.6-.259.6h0a15.748,15.748,0,0,1,9.015,13.54Z" transform="translate(-354.975 -132.075)" fill="#fff"/>
        <path id="Path_817" data-name="Path 817" d="M365.514,172.4a.581.581,0,0,1,.052.079,13.07,13.07,0,0,1,3.734,8.422h1.351a14.357,14.357,0,0,0-8.149-12.259l-.509,1.257h0a12.961,12.961,0,0,1,3.438,2.446.647.647,0,0,1,.083.056Z" transform="translate(-341.971 -161.079)" fill="#fff"/>
      </g>
    </g>
  </g>
</svg>
